# xmcd CD database file
#
# Track frame offsets:
#	150
#	26725
#	82472
#	129602
#	132632
#	188970
#	218472
#
# Disc length: 3912 seconds
#
# Revision: 1
# Processed by: cddbd v1.5.1PL0 Copyright (c) Steve Scherf et al.
# Submitted via: CDex 1.51
#
DISCID=6a0f4607
DTITLE=VINCENT ATMICUS - VINCENT II
DYEAR=2004
DGENRE=Jazz
TTITLE0=くつわむし
TTITLE1=MBIR-VA
TTITLE2=OFERERE/AZOTH
TTITLE3=月夜に猫は森へ行く
TTITLE4=☆☆?〜道化師のレクイエムとメリーゴーランド
TTITLE5=Re-Baptizum
TTITLE6=屋上の飛行機凧
EXTD=YEAR: 2004
EXTT0=
EXTT1=
EXTT2=
EXTT3=
EXTT4=
EXTT5=
EXTT6=
PLAYORDER=
